<?xml version="1.0" standalone="no"?>
<!DOCTYPE svg PUBLIC "-//W3C//DTD SVG 20010904//EN"
 "http://www.w3.org/TR/2001/REC-SVG-20010904/DTD/svg10.dtd">
<svg version="1.0" xmlns="http://www.w3.org/2000/svg"
 width="512.000000pt" height="512.000000pt" viewBox="0 0 512.000000 512.000000"
 preserveAspectRatio="xMidYMid meet">

<g transform="translate(0.000000,512.000000) scale(0.100000,-0.100000)"
fill="#000000" stroke="none">
<path d="M2315 5106 c-57 -25 -90 -75 -115 -177 -12 -52 -25 -99 -29 -105 -4
-7 -160 28 -461 102 -250 62 -487 118 -526 124 -182 28 -379 -76 -459 -245
-47 -100 -43 -152 14 -174 58 -23 482 -120 498 -114 10 3 27 16 39 30 l21 24
66 -17 c41 -10 67 -22 67 -30 0 -28 24 -63 49 -73 14 -6 202 -54 416 -106 215
-53 849 -209 1409 -346 561 -138 1033 -249 1049 -247 53 5 72 45 72 151 0 108
-17 166 -75 256 -48 74 -136 142 -222 170 -35 11 -267 70 -517 131 -250 61
-456 112 -457 113 -2 1 9 51 23 111 22 93 24 114 14 148 -14 46 -61 102 -98
116 -52 21 -685 172 -717 172 -17 -1 -45 -7 -61 -14z m405 -222 c173 -42 317
-78 319 -81 5 -4 -12 -92 -29 -154 l-10 -36 -318 78 c-174 43 -327 81 -338 84
l-21 5 19 82 c21 87 32 109 51 103 7 -2 154 -38 327 -81z"/>
<path d="M1895 4187 c-67 -23 -101 -44 -144 -93 -120 -136 -80 -350 81 -440
47 -26 62 -29 138 -29 97 0 143 18 206 82 56 56 79 114 79 203 -1 86 -27 150
-87 207 -68 65 -191 97 -273 70z m156 -168 c80 -57 73 -176 -14 -229 -106 -65
-237 45 -197 164 12 36 58 80 95 89 32 8 87 -3 116 -24z"/>
<path d="M1117 3696 c-74 -27 -146 -99 -173 -173 -20 -58 -17 -160 7 -213 58
-129 199 -199 333 -165 112 29 182 100 212 215 45 176 -93 350 -276 349 -36 0
-82 -6 -103 -13z m163 -151 c47 -24 70 -66 70 -125 0 -47 -4 -56 -39 -91 -34
-34 -44 -39 -85 -39 -86 0 -146 55 -146 133 0 104 108 170 200 122z"/>
<path d="M3957 3590 c-172 -43 -268 -218 -210 -386 23 -68 102 -145 172 -169
69 -23 169 -17 228 13 170 87 211 310 84 455 -61 69 -185 109 -274 87z m139
-170 c53 -33 74 -133 39 -186 -56 -86 -189 -82 -237 7 -68 128 74 256 198 179z"/>
<path d="M2485 3518 c-27 -5 -91 -29 -142 -53 -107 -52 -196 -134 -256 -236
l-37 -64 -108 3 c-73 2 -126 -2 -167 -13 -170 -44 -317 -161 -393 -314 -23
-46 -42 -90 -42 -97 0 -12 -57 -14 -342 -14 -203 0 -358 -4 -380 -10 -59 -17
-130 -71 -163 -124 -27 -45 -30 -57 -30 -135 0 -65 5 -96 20 -126 28 -56 90
-112 146 -132 l49 -18 0 -67 0 -67 -222 -3 c-208 -3 -226 -5 -264 -25 -203
-108 -203 -385 0 -491 50 -26 55 -27 268 -30 l217 -4 3 -591 c3 -587 3 -592
25 -647 43 -105 142 -201 245 -237 51 -17 127 -18 1653 -18 1511 0 1603 1
1645 18 73 29 138 78 186 140 81 107 78 86 82 749 l3 586 217 4 c213 3 218 4
268 30 203 106 203 383 0 491 -38 20 -56 22 -263 25 l-223 3 0 67 0 67 49 18
c55 19 120 79 147 135 22 46 30 144 15 198 -16 59 -70 125 -132 159 l-54 30
-311 3 -312 3 -21 58 c-29 80 -111 193 -179 247 -123 97 -255 139 -417 132
l-100 -4 -24 47 c-54 108 -183 229 -244 229 -39 0 -77 -36 -77 -72 0 -11 37
-55 85 -102 81 -80 94 -98 143 -218 6 -15 23 -34 37 -44 23 -15 30 -15 90 0
172 43 334 -2 452 -126 43 -46 93 -123 93 -143 0 -3 -499 -5 -1110 -5 -610 0
-1110 2 -1110 5 0 4 7 20 16 38 98 192 316 287 529 230 59 -16 64 -16 90 1 14
9 28 25 31 34 3 9 21 49 40 88 70 148 237 254 399 254 65 0 101 85 53 130 -24
22 -83 25 -173 8z m2031 -980 c53 -58 45 -134 -19 -182 l-28 -21 -1482 -5
-1482 -5 -20 -32 c-19 -31 -22 -32 -92 -33 -58 0 -73 3 -73 15 0 8 -9 24 -20
35 -19 19 -33 20 -312 20 -163 0 -309 5 -329 10 -52 15 -81 50 -87 108 -4 42
0 52 24 81 15 18 37 37 48 41 12 5 880 8 1929 7 l1909 -2 34 -37z m-3876 -758
l0 -120 -206 0 -206 0 -34 34 c-19 19 -34 45 -35 58 -2 45 3 73 18 96 28 44
64 51 271 52 l192 0 0 -120z m4255 106 c51 -22 70 -59 66 -134 -1 -13 -16 -39
-35 -58 l-34 -34 -206 0 -206 0 0 120 0 120 190 0 c142 0 199 -4 225 -14z"/>
</g>
</svg>
